<svg width="75" height="75" viewBox="0 0 75 75" fill="none" xmlns="http://www.w3.org/2000/svg">
<g clip-path="url(#clip0)">
<path d="M37.4995 74.999C58.2099 74.999 74.999 58.2099 74.999 37.4995C74.999 16.7891 58.2099 0 37.4995 0C16.7891 0 0 16.7891 0 37.4995C0 58.2099 16.7891 74.999 37.4995 74.999Z" fill="#592B49"/>
<path d="M74.9184 35.0544L62.0339 22.17H56.2521V33.0347C54.4686 31.0046 52.3557 29.9894 49.9141 29.9894C49.2741 29.9894 48.6614 30.0467 48.0747 30.158L40.0867 22.17H33.0286L28.4844 29.6017L21.0527 22.17H13.9331L23.275 36.5947L12.966 52.3362L35.5815 74.9515C36.2171 74.9836 36.8567 75 37.5 75C58.2107 75 74.9998 58.2106 74.9998 37.5001C74.9998 36.678 74.9704 35.8631 74.9184 35.0544Z" fill="#291221"/>
<path d="M12.966 52.3362L23.2751 36.5947L13.9332 22.17H21.0528L27.1026 31.8616L33.0288 22.17H40.0868L30.7035 36.8209L41.0126 52.336H33.6666L26.979 41.9033L20.2707 52.336L12.966 52.3362Z" fill="#DA2286"/>
<path d="M62.0339 52.3361H56.6632V49.1261C55.7714 50.3744 54.7188 51.3039 53.5047 51.9141C52.2907 52.5244 51.0663 52.8299 49.8318 52.8299C47.3215 52.8299 45.1711 51.8185 43.3808 49.7948C41.5906 47.7714 40.6956 44.949 40.6956 41.3274C40.6956 37.6234 41.5667 34.808 43.3087 32.8806C45.0508 30.9534 47.2525 29.9894 49.9141 29.9894C52.3555 29.9894 54.4683 31.0048 56.252 33.0347V22.17H62.034V52.3361H62.0339ZM46.6011 40.9363C46.6011 43.2686 46.9233 44.956 47.5683 45.9982C48.501 47.5076 49.8041 48.2618 51.4778 48.2618C52.8083 48.2618 53.9401 47.696 54.873 46.5642C55.8057 45.4325 56.2724 43.7419 56.2724 41.4919C56.2724 38.9815 55.8196 37.1743 54.9143 36.0698C54.0089 34.9658 52.8496 34.4134 51.4368 34.4134C50.0648 34.4134 48.9162 34.9587 47.9902 36.0493C47.0641 37.1399 46.6011 38.7691 46.6011 40.9363Z" fill="#DA2286"/>
</g>
<defs>
<clipPath id="clip0">
<rect width="75" height="75" fill="white"/>
</clipPath>
</defs>
</svg>
