<svg width="75" height="84" viewBox="0 0 75 84" fill="none" xmlns="http://www.w3.org/2000/svg">
<g clip-path="url(#clip0)">
<path d="M75 41.7377C75 55.1585 69.3076 67.1005 60.4638 74.736C54.1194 80.2148 46.1525 83.4753 37.5 83.4753C28.8475 83.4753 20.8806 80.2148 14.5362 74.736C5.69238 67.1005 0 55.1585 0 41.7377C0 18.6866 16.7893 0 37.5 0C58.2107 0 75 18.6866 75 41.7377Z" fill="#F2F2F2"/>
<path d="M64.7449 19.4788L60.4638 74.736C54.1194 80.2148 46.1525 83.4753 37.5 83.4753C28.8474 83.4753 20.8806 80.2148 14.5362 74.736L10.2551 19.4788H64.7449Z" fill="#006BC0"/>
<path d="M37.4996 24.6738V82.3823L55.4105 76.7544L59.406 24.6738H37.4996Z" fill="#0096DC"/>
<path d="M53.3256 47.2462H40.4077L53.9061 39.6003L54.4894 31.914H20.5097L21.1043 39.7504H34.7445L21.657 47.0338L22.2659 55.0616H45.6117L44.8465 64.6226L37.4995 66.8373L29.8465 64.4523L29.6552 58.4898H22.5261L23.4179 70.2445L37.4995 74.6738L51.5811 70.2445L53.326 47.2449L53.3256 47.2462Z" fill="white"/>
<path d="M24.2215 10.9601V5.50856H31.2623V2.55578H21.6705V13.9128H31.2623V10.9601H24.2215Z" fill="#222123"/>
<path d="M35.3821 6.99921V5.63621H42.3848V5.50856V2.55578H32.7928V9.59705H39.6678V10.9601H32.7928V13.9128H42.3848V10.9601V6.99921H35.3821Z" fill="#222123"/>
<path d="M46.326 6.99921V5.63621H53.3285V5.50856V2.55578H43.7367V9.59705H50.6116V10.9601H43.7367V13.9128H53.3285V10.9601V6.99921H46.326Z" fill="#222123"/>
</g>
<defs>
<clipPath id="clip0">
<rect width="75" height="83.4753" fill="white"/>
</clipPath>
</defs>
</svg>
