<svg width="107" height="107" viewBox="0 0 107 107" fill="none" xmlns="http://www.w3.org/2000/svg">
<path d="M98.4628 9.10629H66.3722C65.429 9.10629 64.6648 9.87054 64.6648 10.8137C64.6648 11.7568 65.429 12.5211 66.3722 12.5211H98.4628C101.287 12.5211 103.585 14.8191 103.585 17.6435V72.8509H68.867V26.2946C68.867 26.2267 68.862 26.16 68.8543 26.094C68.8522 26.0769 68.8491 26.0604 68.8466 26.043C68.839 25.9922 68.8294 25.9421 68.8177 25.8927C68.8135 25.8756 68.8094 25.8589 68.8046 25.8418C68.7899 25.7885 68.7726 25.7362 68.7531 25.6848C68.749 25.6741 68.7456 25.6631 68.7412 25.6522C68.7157 25.5893 68.6871 25.5283 68.6545 25.4696C68.6522 25.4647 61.6433 12.8486 61.6433 12.8486C61.6385 12.8402 54.9926 0.877525 54.9926 0.877525C54.6914 0.336256 54.1201 0 53.5 0C52.8799 0 52.3086 0.336256 52.0072 0.878152L45.3613 12.8408C45.3565 12.8492 38.3476 25.4654 38.3476 25.4654C38.3129 25.5287 38.2843 25.5899 38.2588 25.6524C38.2544 25.6633 38.251 25.6744 38.2466 25.6852C38.227 25.7364 38.2101 25.7887 38.1954 25.842C38.1906 25.8589 38.1867 25.8758 38.1823 25.893C38.1704 25.9423 38.161 25.9924 38.1534 26.0432C38.1509 26.0604 38.1478 26.0769 38.1457 26.0942C38.138 26.1602 38.133 26.2269 38.133 26.2948V72.8511H3.4148V17.6437C3.4148 14.8193 5.7128 12.5213 8.53722 12.5213H40.6278C41.571 12.5213 42.3352 11.757 42.3352 10.8139C42.3352 9.87075 41.571 9.10649 40.6278 9.10649H8.53722C3.82964 9.10629 0 12.9361 0 17.6437V81.3883C0 86.0959 3.82964 89.9256 8.53722 89.9256H62.0372V98.4628C62.0372 100.383 62.6748 102.157 63.7492 103.585H43.2508C44.3252 102.157 44.9628 100.383 44.9628 98.4628V95.048C44.9628 94.1048 44.1985 93.3406 43.2554 93.3406C42.3122 93.3406 41.548 94.1048 41.548 95.048V98.4628C41.548 101.287 39.25 103.585 36.4256 103.585H22.7657C21.8226 103.585 21.0583 104.349 21.0583 105.293C21.0583 106.236 21.8226 107 22.7657 107H84.2339C85.177 107 85.9413 106.236 85.9413 105.293C85.9413 104.349 85.177 103.585 84.2339 103.585H70.5744C67.75 103.585 65.452 101.287 65.452 98.4628V89.9256H98.4626C103.17 89.9256 107 86.0959 107 81.3883V17.6437C107 12.9361 103.17 9.10629 98.4628 9.10629ZM53.5 5.22315L57.2381 11.952H49.7617L53.5 5.22315ZM47.8645 15.367H59.1353L64.2577 24.5872H42.7421L47.8645 15.367ZM65.452 28.0022V72.8511H55.2074V28.0022H65.452ZM41.548 28.0022H51.7926V72.8511H41.548V28.0022ZM103.585 81.3883C103.585 84.2128 101.287 86.5108 98.4628 86.5108H8.53722C5.7128 86.5108 3.4148 84.2128 3.4148 81.3883V76.2659H103.585V81.3883Z" fill="black"/>
<path d="M53.5 83.096C54.443 83.096 55.2074 82.3315 55.2074 81.3886C55.2074 80.4456 54.443 79.6812 53.5 79.6812C52.557 79.6812 51.7926 80.4456 51.7926 81.3886C51.7926 82.3315 52.557 83.096 53.5 83.096Z" fill="black"/>
</svg>
