<svg width="75" height="75" viewBox="0 0 75 75" fill="none" xmlns="http://www.w3.org/2000/svg">
<path d="M75 37.5C75 49.5582 69.3076 60.2877 60.4638 67.148C54.1194 72.0705 46.1525 75 37.5 75C28.9255 75 21.0245 72.1225 14.7076 67.2795C5.76577 60.427 0 49.6362 0 37.5C0 16.7893 16.7893 0 37.5 0C58.2107 0 75 16.7893 75 37.5Z" fill="#F2F2F2"/>
<path d="M64.7449 17.5011L60.4638 67.148C54.1194 72.0705 46.1525 75 37.5 75C28.9255 75 21.0245 72.1225 14.7076 67.2795L10.4158 17.5011H64.7449Z" fill="#E64C18"/>
<path d="M37.58 22.1556V73.8526L55.4385 68.811L59.4221 22.1556H37.58Z" fill="#F36518"/>
<path d="M20.6401 28.6418L22.3913 49.3786H45.6681L44.9065 57.9445L37.5804 59.9285L29.9502 57.791L29.7586 52.4503H22.651L23.5408 62.9796L37.5804 66.9475L51.6199 62.9796L53.3598 42.3772H28.8469L28.2385 35.6625L28.2384 35.6622L53.9393 35.5276L54.5206 28.6418H20.6401Z" fill="white"/>
<path d="M22.1425 2.46035V6.023H18.7385V2.46035H15.5718V12.6728H18.7385V9.3479H22.1425V12.6728H25.3092V2.46035H22.1425Z" fill="black"/>
<path d="M36.5509 2.46035H26.8132V6.023H29.9799V12.7522H33.3842V6.023H36.5509V2.46035Z" fill="black"/>
<path d="M54.6803 9.50611V2.5396H51.276V9.50611V12.7522H54.6803H59.5884V9.50611H54.6803Z" fill="black"/>
<path d="M46.1299 2.5396L43.7551 6.18121L41.38 2.5396H37.9759V12.7522H41.38V7.68531L43.7551 11.3272L46.1299 7.68531V12.7522H49.5342V2.5396H46.1299Z" fill="black"/>
</svg>
