<svg width="34" height="34" viewBox="0 0 34 34" fill="none" xmlns="http://www.w3.org/2000/svg">
<path d="M17 0.679688C7.9866 0.679688 0.68 7.98629 0.68 16.9997C0.68 26.0131 7.9866 33.3197 17 33.3197C26.0134 33.3197 33.32 26.0131 33.32 16.9997C33.32 7.98629 26.0134 0.679688 17 0.679688ZM13.005 23.764H9.7002V13.1288H13.005V23.764ZM11.3322 11.8232C10.2884 11.8232 9.6135 11.0837 9.6135 10.1691C9.6135 9.23579 10.3088 8.51839 11.3747 8.51839C12.4406 8.51839 13.0934 9.23579 13.1138 10.1691C13.1138 11.0837 12.4406 11.8232 11.3322 11.8232ZM25.075 23.764H21.7702V17.8701C21.7702 16.4982 21.2908 15.5666 20.0957 15.5666C19.1828 15.5666 18.6405 16.1973 18.4008 16.8042C18.3124 17.0201 18.2903 17.3261 18.2903 17.6304V23.7623H14.9838V16.5203C14.9838 15.1926 14.9413 14.0825 14.8971 13.1271H17.7684L17.9197 14.6044H17.986C18.4212 13.9108 19.4871 12.8874 21.2704 12.8874C23.4447 12.8874 25.075 14.3443 25.075 17.4757V23.764V23.764Z" fill="#0D0D0D"/>
</svg>
