<svg width="24" height="17" viewBox="0 0 24 17" fill="none" xmlns="http://www.w3.org/2000/svg">
<path d="M22.2857 0H1.71429C1.25963 0 0.823593 0.175217 0.502103 0.487107C0.180612 0.798996 0 1.22201 0 1.66309V14.9678C0 15.4089 0.180612 15.8319 0.502103 16.1438C0.823593 16.4556 1.25963 16.6309 1.71429 16.6309H22.2857C22.7404 16.6309 23.1764 16.4556 23.4979 16.1438C23.8194 15.8319 24 15.4089 24 14.9678V1.66309C24 1.22201 23.8194 0.798996 23.4979 0.487107C23.1764 0.175217 22.7404 0 22.2857 0ZM20.4 1.66309L12 7.30095L3.6 1.66309H20.4ZM1.71429 14.9678V2.41979L11.5114 8.99729C11.6549 9.09386 11.8254 9.14561 12 9.14561C12.1746 9.14561 12.3451 9.09386 12.4886 8.99729L22.2857 2.41979V14.9678H1.71429Z" fill="black"/>
</svg>
