<svg width="34" height="33" viewBox="0 0 34 33" fill="none" xmlns="http://www.w3.org/2000/svg">
<rect width="34" height="32.9849" rx="16.4924" fill="#0D0D0D"/>
<path d="M27.2708 24.5029L25.7343 23.0107C25.5725 22.9322 25.4916 22.6966 25.4916 22.5395V10.6022C25.4916 10.4451 25.5725 10.2095 25.7343 10.0524L27.2708 8.32463V8.24609H21.7715L17.647 18.3772L12.9564 8.24609H7.29528V8.32463L8.75099 10.288C9.07448 10.6022 9.15535 11.0734 9.15535 11.466V20.1049C9.23623 20.5761 9.15535 21.1259 8.91273 21.5971L6.72917 24.5029V24.5815H12.552V24.5029L10.3684 21.6756C10.1258 21.2044 10.045 20.7332 10.1258 20.1835V12.3299C10.2067 12.487 10.2876 12.487 10.3684 12.8011L15.8678 24.7385H15.9487L21.2863 11.7802C21.2054 12.2514 21.2054 12.8011 21.2054 13.1938V22.461C21.2054 22.6966 21.1245 22.8537 20.9628 23.0107L19.3453 24.5029V24.5815H27.2708V24.5029Z" fill="#EF8961"/>
</svg>
