<svg width="19" height="29" viewBox="0 0 19 29" fill="none" xmlns="http://www.w3.org/2000/svg">
<path d="M16.3056 0.888672H2.69444C2.17875 0.888672 1.68417 1.09353 1.31951 1.45819C0.954861 1.82284 0.75 2.31742 0.75 2.83312V26.1664C0.75 26.6821 0.954861 27.1767 1.31951 27.5414C1.68417 27.906 2.17875 28.1109 2.69444 28.1109H16.3056C16.8213 28.1109 17.3158 27.906 17.6805 27.5414C18.0451 27.1767 18.25 26.6821 18.25 26.1664V2.83312C18.25 2.31742 18.0451 1.82284 17.6805 1.45819C17.3158 1.09353 16.8213 0.888672 16.3056 0.888672ZM2.69444 2.83312H16.3056V20.3331H2.69444V2.83312ZM2.69444 26.1664V22.2776H16.3056V26.1664H2.69444Z" fill="black"/>
</svg>
