<svg width="108" height="134" viewBox="0 0 108 134" fill="none" xmlns="http://www.w3.org/2000/svg">
<path d="M65.937 97H47.709L23.436 60.358V97H5.208V31.435H23.436L47.709 68.542V31.435H65.937V97ZM63.3453 75.65C63.3453 71.4613 64.2603 67.72 66.0903 64.426C67.9203 61.0913 70.4213 58.509 73.5933 56.679C76.7653 54.8083 80.3033 53.873 84.2073 53.873C88.9653 53.873 93.032 55.0117 96.4073 57.289C99.8233 59.5257 102.304 62.6977 103.849 66.805H98.8473C97.6273 63.9177 95.7566 61.6607 93.2353 60.034C90.7546 58.4073 87.7453 57.594 84.2073 57.594C81.076 57.594 78.2496 58.326 75.7283 59.79C73.2476 61.254 71.2956 63.3687 69.8723 66.134C68.449 68.8587 67.7373 72.0307 67.7373 75.65C67.7373 79.2693 68.449 82.4413 69.8723 85.166C71.2956 87.8907 73.2476 89.985 75.7283 91.449C78.2496 92.913 81.076 93.645 84.2073 93.645C87.7453 93.645 90.7546 92.852 93.2353 91.266C95.7566 89.6393 97.6273 87.4027 98.8473 84.556H103.849C102.304 88.6227 99.8233 91.7743 96.4073 94.011C92.9913 96.2477 88.9246 97.366 84.2073 97.366C80.3033 97.366 76.7653 96.451 73.5933 94.621C70.4213 92.7503 67.9203 90.168 66.0903 86.874C64.2603 83.58 63.3453 79.8387 63.3453 75.65Z" fill="#0D0D0D"/>
</svg>
