<svg width="60" height="31" viewBox="0 0 60 31" fill="none" xmlns="http://www.w3.org/2000/svg">
<path d="M59.409 30.9399L48.145 30.9399C44.881 30.9399 42.1156 30.2146 39.849 28.7639C37.5823 27.3133 35.8596 25.4319 34.681 23.1199C33.457 20.7626 32.845 18.2239 32.845 15.5039C32.845 12.7386 33.457 10.1999 34.681 7.88794C35.8596 5.53061 37.5823 3.62661 39.849 2.17594C42.1156 0.725274 44.881 -6.15613e-05 48.145 -6.17039e-05L59.409 -6.21963e-05L59.409 3.26394L48.349 3.26394C45.629 3.26394 43.3396 3.85327 41.481 5.03194C39.577 6.21061 38.149 7.72927 37.197 9.58794C36.1996 11.4466 35.701 13.4186 35.701 15.5039C35.701 17.5893 36.177 19.5613 37.129 21.4199C38.081 23.2786 39.509 24.7973 41.413 25.9759C43.2716 27.1546 45.5836 27.7439 48.349 27.7439L59.409 27.7439L59.409 30.9399Z" fill="black"/>
<path d="M1.55455e-06 30.6429L6.68784e-07 15.3789C5.2611e-07 12.1149 0.725334 9.34952 2.176 7.08286C3.62667 4.81619 5.508 3.09352 7.82 1.91486C10.1773 0.690856 12.716 0.0788569 15.436 0.0788567C18.2013 0.0788566 20.74 0.690856 23.052 1.91485C25.4093 3.09352 27.3133 4.81619 28.764 7.08285C30.2147 9.34952 30.94 12.1149 30.94 15.3789L30.94 30.6429L27.676 30.6429L27.676 15.5829C27.676 12.8629 27.0867 10.5735 25.908 8.71485C24.7293 6.81085 23.2107 5.38285 21.352 4.43085C19.4933 3.43352 17.5213 2.93485 15.436 2.93485C13.3507 2.93485 11.3787 3.41086 9.52 4.36286C7.66133 5.31486 6.14267 6.74285 4.964 8.64685C3.78533 10.5055 3.196 12.8175 3.196 15.5829L3.196 30.6429L1.55455e-06 30.6429Z" fill="black"/>
<rect x="16.188" y="12.8909" width="39" height="8" fill="#FDFCFC"/>
</svg>
