<svg width="108" height="140" viewBox="0 0 108 140" fill="none" xmlns="http://www.w3.org/2000/svg">
<path d="M65.937 103H47.709L23.436 66.358V103H5.208V37.435H23.436L47.709 74.542V37.435H65.937V103ZM63.3453 81.65C63.3453 77.4613 64.2603 73.72 66.0903 70.426C67.9203 67.0913 70.4213 64.509 73.5933 62.679C76.7653 60.8083 80.3033 59.873 84.2073 59.873C88.9653 59.873 93.032 61.0117 96.4073 63.289C99.8233 65.5257 102.304 68.6977 103.849 72.805H98.8473C97.6273 69.9177 95.7566 67.6607 93.2353 66.034C90.7546 64.4073 87.7453 63.594 84.2073 63.594C81.076 63.594 78.2496 64.326 75.7283 65.79C73.2476 67.254 71.2956 69.3687 69.8723 72.134C68.449 74.8587 67.7373 78.0307 67.7373 81.65C67.7373 85.2693 68.449 88.4413 69.8723 91.166C71.2956 93.8907 73.2476 95.985 75.7283 97.449C78.2496 98.913 81.076 99.645 84.2073 99.645C87.7453 99.645 90.7546 98.852 93.2353 97.266C95.7566 95.6393 97.6273 93.4027 98.8473 90.556H103.849C102.304 94.6227 99.8233 97.7743 96.4073 100.011C92.9913 102.248 88.9246 103.366 84.2073 103.366C80.3033 103.366 76.7653 102.451 73.5933 100.621C70.4213 98.7503 67.9203 96.168 66.0903 92.874C64.2603 89.58 63.3453 85.8387 63.3453 81.65Z" fill="#FDFCFC"/>
</svg>
