<svg width="107" height="107" viewBox="0 0 107 107" fill="none" xmlns="http://www.w3.org/2000/svg">
<path d="M104.864 44.9386L84.1091 31.564C83.9468 31.4607 83.7678 31.4216 83.5933 31.3639V26.751C83.5933 25.5193 82.5963 24.5216 81.3639 24.5216H73.0865L55.7965 13.7152C55.0741 13.2623 54.1554 13.2623 53.4323 13.7152L36.1423 24.5216H25.6355C24.4037 24.5216 23.406 25.5186 23.406 26.751V31.3626C23.2315 31.4203 23.0519 31.4601 22.8902 31.564L2.13575 44.9386C1.49997 45.3499 1.11439 46.0556 1.11439 46.8126V104.771C1.11439 106.002 2.11137 107 3.34381 107H103.656C104.887 107 105.885 106.003 105.885 104.771V46.8133C105.885 46.0556 105.499 45.3505 104.864 44.9386ZM54.6147 18.235L64.675 24.5216H44.5544L54.6147 18.235ZM27.8649 28.9798H79.1351V79.1357C79.1351 79.1421 79.139 79.1472 79.139 79.1543L71.5981 83.7331L53.4522 73.8358C52.7754 73.4701 51.9522 73.472 51.2799 73.8576L34.7212 83.32L27.8617 79.1549C27.8617 79.1485 27.8655 79.1434 27.8655 79.137L27.8649 28.9798ZM5.57323 48.0277L23.406 36.5374V76.4501L5.57323 65.6219V48.0277ZM5.57323 70.8358L30.297 85.8464L5.57323 99.9748V70.8358ZM10.0654 102.542L52.4116 78.3459L96.7723 102.542H10.0654ZM101.427 100.002L76.1211 86.1999L101.427 70.8352V100.002ZM101.427 65.6219L83.5933 76.4495V36.5374L101.427 48.0284V65.6219Z" fill="black"/>
<path d="M36.7813 51.2719H63.5311C64.7629 51.2719 65.7605 50.2749 65.7605 49.0425V35.6679C65.7605 34.4361 64.7635 33.4385 63.5311 33.4385H36.7813C35.5495 33.4385 34.5518 34.4355 34.5518 35.6679V49.0425C34.5518 50.2749 35.5495 51.2719 36.7813 51.2719ZM39.01 37.8967H61.3017V46.8131H39.01V37.8967Z" fill="black"/>
<path d="M70.2181 55.73H34.5518V60.1882H70.2181V55.73Z" fill="black"/>
<path d="M70.2181 64.647H34.5518V69.1052H70.2181V64.647Z" fill="black"/>
<path d="M94.7391 26.7512C95.3095 26.7512 95.8798 26.5337 96.3155 26.0981L104.196 18.2178C105.066 17.3472 105.066 15.9364 104.196 15.0658C103.325 14.1945 101.914 14.1952 101.044 15.0658L93.1635 22.9461C92.2929 23.8167 92.2929 25.2275 93.1635 26.0981C93.5985 26.5337 94.1688 26.7512 94.7391 26.7512Z" fill="black"/>
<path d="M10.6845 26.0983C11.1202 26.5339 11.6905 26.7514 12.2609 26.7514C12.8312 26.7514 13.4015 26.5339 13.8372 26.0983C14.7078 25.2277 14.7078 23.8169 13.8372 22.9463L5.95624 15.066C5.08565 14.1954 3.67485 14.1954 2.80426 15.066C1.93366 15.9366 1.93366 17.3474 2.80426 18.218L10.6845 26.0983Z" fill="black"/>
<path d="M76.0787 15.4464C76.3488 15.5554 76.6298 15.6048 76.9057 15.6048C77.7898 15.6048 78.6276 15.0756 78.976 14.203L83.4342 3.05722C83.8916 1.9146 83.3341 0.616726 82.1915 0.159935C81.0598 -0.29493 79.751 0.255528 79.2942 1.40264L74.836 12.5485C74.3786 13.6917 74.9355 14.9896 76.0787 15.4464Z" fill="black"/>
<path d="M30.2528 14.2038C30.6011 15.077 31.439 15.6056 32.3231 15.6056C32.5996 15.6056 32.8806 15.5556 33.15 15.4465C34.2927 14.9891 34.8502 13.6918 34.3927 12.5492L29.9345 1.40339C29.4771 0.256282 28.1715 -0.294818 27.0373 0.16069C25.8946 0.618122 25.3371 1.91536 25.7946 3.05797L30.2528 14.2038Z" fill="black"/>
</svg>
