<svg width="149" height="44" viewBox="0 0 149 44" fill="none" xmlns="http://www.w3.org/2000/svg">
<path fill-rule="evenodd" clip-rule="evenodd" d="M39.2606 29.6355L39.2606 43.4695H43.8909L43.8909 29.6355H39.2606ZM43.6744 18.2869C43.2738 15.1581 42.317 12.4118 40.804 10.0478C38.7461 6.83234 36.0452 4.3886 32.7011 2.71657C29.4214 0.98023 25.82 0.112061 21.8972 0.112061C18.0387 0.112061 14.4374 0.980231 11.0933 2.71657C7.81354 4.3886 5.14472 6.83234 3.08683 10.0478C1.02895 13.2632 0 17.1861 0 21.8163L3.8147e-06 43.4695H4.53378V22.1057C4.53378 18.1829 5.3698 14.9031 7.04183 12.2664C8.71387 9.56547 10.8682 7.53975 13.5049 6.18926C16.1416 4.83877 18.939 4.16352 21.8972 4.16352C24.8554 4.16352 27.6529 4.87092 30.2895 6.28572C32.9262 7.6362 35.0805 9.66194 36.7526 12.3629C37.8407 14.0788 38.5748 16.0535 38.9548 18.2869H43.6744Z" fill="black"/>
<path fill-rule="evenodd" clip-rule="evenodd" d="M68.2975 43.8909L84.2764 43.8909L84.2764 39.3571H68.5869C64.664 39.3571 61.3843 38.5211 58.7476 36.849C56.0466 35.177 54.0209 33.0227 52.6704 30.386C52.4947 30.0429 52.3304 29.6971 52.1776 29.3486H47.7445C48.1314 30.5272 48.6158 31.6768 49.1977 32.7976C50.8698 36.0773 53.3135 38.7462 56.5289 40.804C59.7444 42.8619 63.6672 43.8909 68.2975 43.8909ZM46.9111 18C47.3058 15.5938 48.068 13.3237 49.1977 11.1898C50.8698 7.84569 53.3135 5.14472 56.5289 3.08684C59.7444 1.02895 63.6672 0 68.2975 0L84.2764 0L84.2764 4.63025L68.5869 4.63025C64.7283 4.63025 61.4807 5.46626 58.8441 7.1383C56.1431 8.81033 54.1174 10.9647 52.7669 13.6013C52.0051 15.021 51.4484 16.4872 51.0968 18H46.9111Z" fill="black"/>
<path d="M62.508 24.9V17.76H62.933C63.5337 17.76 63.885 17.8053 63.987 17.896C64.1003 17.9753 64.157 18.2757 64.157 18.797V24.9C64.157 26.6453 64.1117 27.671 64.021 27.977C63.9417 28.2717 63.851 28.555 63.749 28.827C63.6583 29.099 63.5393 29.2973 63.392 29.422C63.2447 29.5353 63.0633 29.66 62.848 29.796C62.4853 30.0113 61.8903 30.119 61.063 30.119C60.3943 30.119 59.9297 30.0623 59.669 29.949C59.4197 29.8357 59.2213 29.745 59.074 29.677C58.9267 29.5977 58.7963 29.4673 58.683 29.286C58.5697 29.1047 58.4733 28.9573 58.394 28.844C58.326 28.7307 58.2693 28.538 58.224 28.266C58.1787 27.9827 58.139 27.7617 58.105 27.603C58.0823 27.4443 58.0653 27.178 58.054 26.804C58.0427 26.4187 58.037 26.124 58.037 25.92V17.76H58.445C59.057 17.76 59.414 17.8053 59.516 17.896C59.618 17.9753 59.669 18.2757 59.669 18.797V25.444C59.669 26.6793 59.7427 27.518 59.89 27.96C60.0487 28.3907 60.4397 28.606 61.063 28.606C61.301 28.606 61.4993 28.5833 61.658 28.538C61.828 28.4813 61.964 28.368 62.066 28.198C62.1793 28.028 62.2643 27.875 62.321 27.739C62.389 27.5917 62.4343 27.3367 62.457 26.974C62.491 26.4413 62.508 25.75 62.508 24.9ZM66.124 30H65.342L67.739 23.965L65.495 17.76H66.294C66.7473 17.76 67.025 17.7997 67.127 17.879C67.2403 17.9583 67.382 18.2417 67.552 18.729L68.674 22.605H68.946L70.306 17.76H70.646C71.0993 17.76 71.394 17.7827 71.53 17.828C71.6773 17.8733 71.751 18.0093 71.751 18.236C71.751 18.3493 71.0313 20.2533 69.592 23.948L71.836 30H71.088C70.646 30 70.357 29.9433 70.221 29.83C70.085 29.7167 69.9603 29.4503 69.847 29.031L68.793 25.427H68.521L67.365 29.065C67.1836 29.5297 67.042 29.8017 66.94 29.881C66.838 29.9603 66.566 30 66.124 30ZM78.7698 17.76L73.8908 33.179H72.2758L77.1378 17.76H78.7698ZM84.4553 24.9V17.76H84.8803C85.4809 17.76 85.8323 17.8053 85.9343 17.896C86.0476 17.9753 86.1043 18.2757 86.1043 18.797V24.9C86.1043 26.6453 86.0589 27.671 85.9683 27.977C85.8889 28.2717 85.7983 28.555 85.6963 28.827C85.6056 29.099 85.4866 29.2973 85.3393 29.422C85.1919 29.5353 85.0106 29.66 84.7953 29.796C84.4326 30.0113 83.8376 30.119 83.0103 30.119C82.3416 30.119 81.8769 30.0623 81.6163 29.949C81.3669 29.8357 81.1686 29.745 81.0213 29.677C80.8739 29.5977 80.7436 29.4673 80.6303 29.286C80.5169 29.1047 80.4206 28.9573 80.3413 28.844C80.2733 28.7307 80.2166 28.538 80.1713 28.266C80.1259 27.9827 80.0863 27.7617 80.0523 27.603C80.0296 27.4443 80.0126 27.178 80.0013 26.804C79.9899 26.4187 79.9843 26.124 79.9843 25.92V17.76H80.3923C81.0043 17.76 81.3613 17.8053 81.4633 17.896C81.5653 17.9753 81.6163 18.2757 81.6163 18.797V25.444C81.6163 26.6793 81.6899 27.518 81.8373 27.96C81.9959 28.3907 82.3869 28.606 83.0103 28.606C83.2483 28.606 83.4466 28.5833 83.6053 28.538C83.7753 28.4813 83.9113 28.368 84.0133 28.198C84.1266 28.028 84.2116 27.875 84.2683 27.739C84.3363 27.5917 84.3816 27.3367 84.4043 26.974C84.4383 26.4413 84.4553 25.75 84.4553 24.9ZM87.9692 28.963V17.76H88.3262C88.9496 17.76 89.3122 17.8053 89.4142 17.896C89.5276 17.9753 89.5842 18.2757 89.5842 18.797V30H89.1932C88.5812 30 88.2242 29.9603 88.1222 29.881C88.0202 29.7903 87.9692 29.4843 87.9692 28.963ZM100.945 20.123C101.047 20.769 101.104 21.313 101.115 21.755C101.138 22.1857 101.149 22.758 101.149 23.472V24.934C101.149 25.7727 101.121 26.3847 101.064 26.77C101.007 27.144 100.945 27.5067 100.877 27.858C100.809 28.198 100.724 28.4587 100.622 28.64C100.52 28.8213 100.39 29.0253 100.231 29.252C100.084 29.4673 99.9135 29.626 99.7209 29.728C99.2449 29.9887 98.7009 30.119 98.0889 30.119L94.8589 30V17.726L98.0889 17.556C98.6782 17.556 99.1712 17.675 99.5679 17.913C99.9759 18.1397 100.282 18.4003 100.486 18.695C100.69 18.9897 100.843 19.4657 100.945 20.123ZM98.0889 28.606C98.4629 28.606 98.7405 28.4757 98.9219 28.215C99.0239 28.0677 99.1089 27.926 99.1769 27.79C99.2562 27.654 99.3129 27.45 99.3469 27.178C99.3922 26.906 99.4262 26.6737 99.4489 26.481C99.4829 26.2883 99.5055 26.0107 99.5169 25.648C99.5282 25.274 99.5339 24.9793 99.5339 24.764V22.809C99.5339 22.0157 99.5112 21.4943 99.4659 21.245C99.4319 20.9843 99.3922 20.7237 99.3469 20.463C99.3129 20.191 99.2562 19.9927 99.1769 19.868C99.1089 19.732 99.0239 19.596 98.9219 19.46C98.7405 19.1993 98.4629 19.069 98.0889 19.069H96.3379L96.4739 19.494V28.181L96.3209 28.606H98.0889ZM111.136 28.487C111.68 28.487 112.077 28.3567 112.326 28.096C112.507 27.9033 112.604 27.5577 112.615 27.059C112.626 26.9117 112.632 26.702 112.632 26.43C112.632 26.1467 112.536 25.8577 112.343 25.563C112.15 25.2683 111.969 25.0473 111.799 24.9C111.64 24.7527 111.346 24.492 110.915 24.118C110.484 23.744 110.178 23.4777 109.997 23.319C109.827 23.149 109.583 22.8883 109.266 22.537C108.688 21.9023 108.399 21.2393 108.399 20.548C108.399 19.3467 108.524 18.61 108.773 18.338C109.158 17.9413 109.572 17.7147 110.014 17.658C110.456 17.59 110.926 17.556 111.425 17.556L113.737 18.049C113.646 18.695 113.516 19.0747 113.346 19.188C113.267 19.256 113.125 19.29 112.921 19.29C112.728 19.29 112.473 19.256 112.156 19.188L111.51 19.069C110.841 19.069 110.428 19.205 110.269 19.477C110.19 19.6243 110.139 19.7603 110.116 19.885C110.105 20.0097 110.099 20.1967 110.099 20.446C110.099 20.9107 110.671 21.6247 111.816 22.588C112.36 23.0187 112.785 23.3813 113.091 23.676C113.397 23.9707 113.686 24.3277 113.958 24.747C114.23 25.1663 114.366 25.563 114.366 25.937C114.366 26.311 114.36 26.6 114.349 26.804C114.349 26.9967 114.326 27.2687 114.281 27.62C114.247 27.96 114.19 28.2263 114.111 28.419C114.032 28.6117 113.913 28.8327 113.754 29.082C113.595 29.3313 113.403 29.5183 113.176 29.643C112.598 29.9603 111.907 30.119 111.102 30.119L103.027 30V17.76H107.855V19.205H104.54L104.693 19.63V22.231L104.54 22.656H107.651V24.169H104.557L104.693 24.56V28.062L104.54 28.487H111.136ZM115.876 28.963V17.76H116.233C116.857 17.76 117.219 17.8053 117.321 17.896C117.435 17.9753 117.491 18.2757 117.491 18.797V30H117.1C116.488 30 116.131 29.9603 116.029 29.881C115.927 29.7903 115.876 29.4843 115.876 28.963ZM121.144 22.809V24.764C121.144 25.5573 121.161 26.09 121.195 26.362C121.24 26.634 121.28 26.906 121.314 27.178C121.359 27.45 121.416 27.654 121.484 27.79C121.563 27.926 121.654 28.0677 121.756 28.215C121.858 28.3623 121.977 28.4643 122.113 28.521C122.249 28.5777 122.407 28.606 122.589 28.606C122.861 28.606 123.337 28.5493 124.017 28.436L123.881 28.011V24.747C123.881 24.1237 123.92 23.761 124 23.659C124.09 23.557 124.391 23.506 124.901 23.506H125.462V29.83C125.269 29.8527 124.969 29.8923 124.561 29.949C123.767 30.0623 123.155 30.119 122.725 30.119C122.294 30.119 121.943 30.0793 121.671 30C121.399 29.932 121.161 29.847 120.957 29.745C120.764 29.6317 120.588 29.4673 120.43 29.252C120.282 29.0253 120.158 28.8213 120.056 28.64C119.954 28.4587 119.869 28.198 119.801 27.858C119.733 27.5067 119.682 27.2177 119.648 26.991C119.614 26.7643 119.585 26.43 119.563 25.988C119.54 25.5347 119.529 25.1833 119.529 24.934V23.778C119.529 22.86 119.534 22.1857 119.546 21.755C119.568 21.313 119.631 20.769 119.733 20.123C119.835 19.4657 119.988 18.9897 120.192 18.695C120.396 18.4003 120.696 18.1397 121.093 17.913C121.501 17.675 121.999 17.556 122.589 17.556L125.122 18.1C125.031 18.746 124.878 19.1257 124.663 19.239C124.561 19.2843 124.396 19.307 124.17 19.307C123.954 19.307 123.643 19.2673 123.235 19.188L122.589 19.069C122.215 19.069 121.937 19.1993 121.756 19.46C121.654 19.596 121.563 19.732 121.484 19.868C121.416 19.9927 121.359 20.191 121.314 20.463C121.28 20.7237 121.251 20.9447 121.229 21.126C121.172 21.4547 121.144 22.0157 121.144 22.809ZM131.344 26.26V17.76H131.718C132.33 17.76 132.687 17.8053 132.789 17.896C132.891 17.9753 132.942 18.2757 132.942 18.797V30H132.432C131.865 30 131.514 29.9603 131.378 29.881C131.242 29.7903 131.094 29.5127 130.936 29.048L128.743 21.704H128.658V28.963C128.658 29.4843 128.607 29.7903 128.505 29.881C128.403 29.9603 128.046 30 127.434 30H127.077V17.76H127.451C128.006 17.76 128.346 17.7997 128.471 17.879C128.595 17.9583 128.748 18.236 128.93 18.712L131.259 26.26H131.344ZM140.074 28.487V30H134.736V17.76H139.904V19.205H136.249L136.402 19.63V22.231L136.249 22.656H139.7V24.169H136.266L136.402 24.56V28.062L136.249 28.487H140.074ZM142.017 30H141.609V17.743L144.04 17.556C145.06 17.556 145.763 17.7033 146.148 17.998C146.295 18.1113 146.42 18.2133 146.522 18.304C146.624 18.3947 146.709 18.5307 146.777 18.712L146.913 19.188C146.992 19.4033 147.032 19.6867 147.032 20.038V21.024C147.032 22.656 146.8 23.676 146.335 24.084C146.131 24.2653 145.865 24.373 145.536 24.407L148.239 30H147.678C147.111 30 146.726 29.949 146.522 29.847C146.318 29.7337 146.131 29.4843 145.961 29.099L143.87 24.458H143.071L143.224 24.883L143.241 28.963C143.241 29.4843 143.19 29.7903 143.088 29.881C142.986 29.9603 142.629 30 142.017 30ZM144.074 22.945C144.686 22.945 145.054 22.8203 145.179 22.571C145.315 22.3217 145.383 21.9137 145.383 21.347C145.383 20.7803 145.377 20.4233 145.366 20.276C145.366 20.1173 145.343 19.9417 145.298 19.749C145.253 19.545 145.185 19.409 145.094 19.341C144.856 19.1597 144.516 19.069 144.074 19.069H143.071L143.224 19.494V22.554L143.088 22.945H144.074Z" fill="#FDFCFC"/>
</svg>
