<svg width="179" height="44" viewBox="0 0 179 44" fill="none" xmlns="http://www.w3.org/2000/svg">
<path fill-rule="evenodd" clip-rule="evenodd" d="M39.2606 29.6355L39.2606 43.4695H43.8909L43.8909 29.6355H39.2606ZM43.6744 18.2869C43.2738 15.1581 42.317 12.4118 40.804 10.0478C38.7461 6.83234 36.0452 4.3886 32.7011 2.71657C29.4214 0.98023 25.82 0.112061 21.8972 0.112061C18.0387 0.112061 14.4374 0.980231 11.0933 2.71657C7.81354 4.3886 5.14472 6.83234 3.08683 10.0478C1.02895 13.2632 5.61388e-07 17.1861 5.61388e-07 21.8163L4.37609e-06 43.4695H4.53378V22.1057C4.53378 18.1829 5.3698 14.9031 7.04183 12.2664C8.71387 9.56547 10.8682 7.53975 13.5049 6.18926C16.1416 4.83877 18.939 4.16352 21.8972 4.16352C24.8554 4.16352 27.6529 4.87092 30.2895 6.28572C32.9262 7.6362 35.0805 9.66194 36.7526 12.3629C37.8407 14.0788 38.5748 16.0535 38.9548 18.2869H43.6744Z" fill="black"/>
<path fill-rule="evenodd" clip-rule="evenodd" d="M68.2975 43.8909L84.2764 43.8909L84.2764 39.3571H68.5869C64.664 39.3571 61.3843 38.5211 58.7476 36.849C56.0466 35.177 54.0209 33.0227 52.6704 30.386C52.664 30.3735 52.6577 30.3611 52.6513 30.3486H48.0988C48.4152 31.1797 48.7815 31.996 49.1977 32.7976C50.8698 36.0773 53.3135 38.7462 56.5289 40.804C59.7444 42.8619 63.6672 43.8909 68.2975 43.8909ZM46.7692 19C47.1032 16.2205 47.9127 13.6171 49.1977 11.1898C50.8698 7.84569 53.3135 5.14472 56.5289 3.08684C59.7444 1.02895 63.6672 0 68.2975 0L84.2764 0L84.2764 4.63025L68.5869 4.63025C64.7283 4.63025 61.4807 5.46626 58.8441 7.1383C56.1431 8.81033 54.1174 10.9647 52.7669 13.6013C51.8384 15.3317 51.2146 17.1312 50.8954 19H46.7692Z" fill="black"/>
<path d="M69.4922 24.2437C69.4922 24.9022 69.3677 25.522 69.1187 26.103C68.8696 26.6785 68.5293 27.1821 68.0977 27.6138C67.666 28.0399 67.1597 28.3774 66.5786 28.6265C66.0031 28.8755 65.3861 29 64.7275 29C64.069 29 63.4492 28.8755 62.8682 28.6265C62.2926 28.3774 61.7891 28.0399 61.3574 27.6138C60.9313 27.1821 60.5938 26.6785 60.3447 26.103C60.0957 25.522 59.9712 24.9022 59.9712 24.2437V17.0967H62.3452V24.2437C62.3452 24.5701 62.4061 24.8773 62.5278 25.165C62.6551 25.4528 62.8267 25.7046 63.0425 25.9204C63.2583 26.1362 63.5101 26.3078 63.7979 26.4351C64.0911 26.5568 64.401 26.6177 64.7275 26.6177C65.054 26.6177 65.3612 26.5568 65.6489 26.4351C65.9422 26.3078 66.1968 26.1362 66.4126 25.9204C66.6284 25.7046 66.7972 25.4528 66.9189 25.165C67.0462 24.8773 67.1099 24.5701 67.1099 24.2437V17.0967H69.4922V24.2437ZM80.8062 29H77.9175L75.6265 25.1567L73.3271 29H70.4551L74.1074 23.0483L70.4551 17.0967H73.3271L75.6265 20.9399L77.9175 17.0967H80.8062L77.1538 23.0483L80.8062 29ZM83.7363 29H81.2876L86.2183 17.0967H88.667L83.7363 29ZM99.6406 24.2437C99.6406 24.9022 99.5161 25.522 99.2671 26.103C99.0181 26.6785 98.6777 27.1821 98.2461 27.6138C97.8145 28.0399 97.3081 28.3774 96.7271 28.6265C96.1515 28.8755 95.5345 29 94.876 29C94.2174 29 93.5977 28.8755 93.0166 28.6265C92.4411 28.3774 91.9375 28.0399 91.5059 27.6138C91.0798 27.1821 90.7422 26.6785 90.4932 26.103C90.2441 25.522 90.1196 24.9022 90.1196 24.2437V17.0967H92.4937V24.2437C92.4937 24.5701 92.5545 24.8773 92.6763 25.165C92.8035 25.4528 92.9751 25.7046 93.1909 25.9204C93.4067 26.1362 93.6585 26.3078 93.9463 26.4351C94.2396 26.5568 94.5495 26.6177 94.876 26.6177C95.2025 26.6177 95.5096 26.5568 95.7974 26.4351C96.0907 26.3078 96.3452 26.1362 96.561 25.9204C96.7769 25.7046 96.9456 25.4528 97.0674 25.165C97.1947 24.8773 97.2583 24.5701 97.2583 24.2437V17.0967H99.6406V24.2437ZM104.09 29H101.708V17.0967H104.09V29Z" fill="#EF8961"/>
<path d="M120.608 23.0483C120.608 23.5962 120.536 24.1247 120.393 24.6338C120.254 25.1374 120.055 25.6105 119.795 26.0532C119.535 26.4904 119.225 26.8916 118.865 27.2568C118.506 27.6165 118.104 27.9264 117.662 28.1865C117.219 28.4466 116.743 28.6486 116.234 28.7925C115.73 28.9308 115.205 29 114.657 29H111.071V17.0967H114.657C115.205 17.0967 115.73 17.1686 116.234 17.3125C116.743 17.4508 117.219 17.6501 117.662 17.9102C118.104 18.1702 118.506 18.4829 118.865 18.8481C119.225 19.2078 119.535 19.609 119.795 20.0518C120.055 20.4889 120.254 20.9621 120.393 21.4712C120.536 21.9748 120.608 22.5005 120.608 23.0483ZM118.226 23.0483C118.226 22.5558 118.132 22.0938 117.944 21.6621C117.761 21.2305 117.507 20.8542 117.18 20.5332C116.859 20.2067 116.48 19.9494 116.043 19.7612C115.611 19.5731 115.149 19.479 114.657 19.479H113.47V26.6177H114.657C115.149 26.6177 115.611 26.5264 116.043 26.3438C116.48 26.1556 116.859 25.901 117.18 25.5801C117.507 25.2536 117.761 24.8745 117.944 24.4429C118.132 24.0057 118.226 23.5409 118.226 23.0483ZM125.489 26.8252C125.578 26.8529 125.666 26.8722 125.755 26.8833C125.843 26.8888 125.932 26.8916 126.021 26.8916C126.242 26.8916 126.455 26.8612 126.66 26.8003C126.864 26.7394 127.055 26.6536 127.232 26.543C127.415 26.4268 127.576 26.2884 127.714 26.1279C127.858 25.9619 127.974 25.7793 128.062 25.5801L129.723 27.2485C129.512 27.5474 129.269 27.8158 128.992 28.0537C128.721 28.2917 128.425 28.4937 128.104 28.6597C127.789 28.8257 127.454 28.9502 127.1 29.0332C126.751 29.1217 126.391 29.166 126.021 29.166C125.395 29.166 124.806 29.0498 124.252 28.8174C123.705 28.585 123.223 28.2612 122.808 27.8462C122.399 27.4312 122.075 26.9386 121.837 26.3687C121.599 25.7931 121.48 25.1623 121.48 24.4761C121.48 23.7733 121.599 23.1313 121.837 22.5503C122.075 21.9692 122.399 21.474 122.808 21.0645C123.223 20.6549 123.705 20.3368 124.252 20.1099C124.806 19.883 125.395 19.7695 126.021 19.7695C126.391 19.7695 126.754 19.8138 127.108 19.9023C127.462 19.9909 127.797 20.1182 128.112 20.2842C128.433 20.4502 128.732 20.6549 129.009 20.8984C129.285 21.1364 129.529 21.4048 129.739 21.7036L125.489 26.8252ZM126.651 22.1519C126.546 22.1131 126.441 22.0882 126.336 22.0771C126.236 22.0661 126.131 22.0605 126.021 22.0605C125.711 22.0605 125.417 22.1187 125.141 22.2349C124.869 22.3455 124.632 22.506 124.427 22.7163C124.228 22.9266 124.07 23.1812 123.954 23.48C123.837 23.7733 123.779 24.1053 123.779 24.4761C123.779 24.5591 123.782 24.6532 123.788 24.7583C123.799 24.8634 123.812 24.9714 123.829 25.082C123.851 25.1872 123.876 25.2896 123.904 25.3892C123.931 25.4888 123.967 25.5773 124.012 25.6548L126.651 22.1519ZM135.766 29H130.586V26.7422H135.766C135.921 26.7422 136.053 26.6868 136.164 26.5762C136.275 26.4655 136.33 26.3327 136.33 26.1777C136.33 26.0173 136.275 25.9121 136.164 25.8623C136.053 25.8125 135.921 25.7876 135.766 25.7876H133.408C133.015 25.7876 132.647 25.7129 132.304 25.5635C131.961 25.4141 131.662 25.2121 131.408 24.9575C131.153 24.6974 130.951 24.3958 130.802 24.0527C130.658 23.7096 130.586 23.3416 130.586 22.9487C130.586 22.5558 130.658 22.1878 130.802 21.8447C130.951 21.5016 131.153 21.2028 131.408 20.9482C131.662 20.6937 131.961 20.4945 132.304 20.3506C132.647 20.2012 133.015 20.1265 133.408 20.1265H137.999V22.3843H133.408C133.253 22.3843 133.12 22.4396 133.01 22.5503C132.899 22.661 132.844 22.7938 132.844 22.9487C132.844 23.1092 132.899 23.2476 133.01 23.3638C133.12 23.4744 133.253 23.5298 133.408 23.5298H135.766C136.153 23.5298 136.518 23.5962 136.861 23.729C137.204 23.8563 137.503 24.0361 137.758 24.2686C138.012 24.501 138.214 24.7804 138.364 25.1069C138.513 25.4334 138.588 25.7904 138.588 26.1777C138.588 26.5706 138.513 26.9386 138.364 27.2817C138.214 27.6193 138.012 27.9181 137.758 28.1782C137.503 28.4328 137.204 28.6348 136.861 28.7842C136.518 28.9281 136.153 29 135.766 29ZM142.473 17.6943C142.473 17.9046 142.431 18.1011 142.348 18.2837C142.271 18.4663 142.163 18.6268 142.024 18.7651C141.886 18.8979 141.723 19.0059 141.535 19.0889C141.352 19.1663 141.156 19.2051 140.945 19.2051C140.735 19.2051 140.536 19.1663 140.348 19.0889C140.165 19.0059 140.005 18.8979 139.866 18.7651C139.733 18.6268 139.625 18.4663 139.542 18.2837C139.465 18.1011 139.426 17.9046 139.426 17.6943C139.426 17.4896 139.465 17.2959 139.542 17.1133C139.625 16.9251 139.733 16.7646 139.866 16.6318C140.005 16.4935 140.165 16.3856 140.348 16.3081C140.536 16.2251 140.735 16.1836 140.945 16.1836C141.156 16.1836 141.352 16.2251 141.535 16.3081C141.723 16.3856 141.886 16.4935 142.024 16.6318C142.163 16.7646 142.271 16.9251 142.348 17.1133C142.431 17.2959 142.473 17.4896 142.473 17.6943ZM142.083 29H139.8V20.1099H142.083V29ZM150.143 24.4761C150.143 24.1662 150.082 23.8674 149.96 23.5796C149.844 23.2863 149.683 23.029 149.479 22.8076C149.274 22.5807 149.033 22.4009 148.756 22.2681C148.485 22.1297 148.195 22.0605 147.885 22.0605C147.575 22.0605 147.282 22.1131 147.005 22.2183C146.734 22.3234 146.496 22.4784 146.291 22.6831C146.092 22.8879 145.934 23.1424 145.818 23.4468C145.702 23.7456 145.644 24.0887 145.644 24.4761C145.644 24.8468 145.702 25.1816 145.818 25.4805C145.934 25.7738 146.092 26.0256 146.291 26.2358C146.496 26.4461 146.734 26.6094 147.005 26.7256C147.282 26.8363 147.575 26.8916 147.885 26.8916C148.195 26.8916 148.485 26.8252 148.756 26.6924C149.033 26.554 149.274 26.3742 149.479 26.1528C149.683 25.9259 149.844 25.6686 149.96 25.3809C150.082 25.0876 150.143 24.786 150.143 24.4761ZM152.425 27.8794C152.425 28.5047 152.306 29.0913 152.068 29.6392C151.83 30.187 151.504 30.6657 151.089 31.0752C150.679 31.4847 150.198 31.8084 149.645 32.0464C149.097 32.2843 148.51 32.4033 147.885 32.4033L146.748 32.3867V30.1206L147.868 30.1372C148.222 30.1372 148.524 30.0902 148.773 29.9961C149.022 29.9076 149.232 29.783 149.404 29.6226C149.575 29.4676 149.711 29.2878 149.811 29.083C149.916 28.8783 149.999 28.6624 150.06 28.4355C149.971 28.5794 149.844 28.6984 149.678 28.7925C149.512 28.881 149.326 28.953 149.122 29.0083C148.922 29.0692 148.712 29.1107 148.491 29.1328C148.275 29.1549 148.073 29.166 147.885 29.166C147.259 29.166 146.67 29.0581 146.117 28.8423C145.569 28.6265 145.087 28.3193 144.672 27.9209C144.263 27.5169 143.939 27.0244 143.701 26.4434C143.463 25.8623 143.344 25.2065 143.344 24.4761C143.344 23.8065 143.463 23.1839 143.701 22.6084C143.939 22.0329 144.263 21.5348 144.672 21.1143C145.087 20.6937 145.569 20.3644 146.117 20.1265C146.67 19.8885 147.259 19.7695 147.885 19.7695C148.173 19.7695 148.458 19.8055 148.74 19.8774C149.022 19.9494 149.296 20.049 149.562 20.1763C149.827 20.3035 150.079 20.453 150.317 20.6245C150.56 20.7961 150.787 20.9814 150.998 21.1807L151.877 20.1265H152.425V27.8794ZM156.426 29H154.16V20.1099H154.708L155.455 20.9731C155.82 20.6411 156.233 20.3866 156.692 20.2095C157.157 20.0269 157.641 19.9355 158.145 19.9355C158.687 19.9355 159.199 20.0407 159.68 20.251C160.162 20.4557 160.582 20.7407 160.942 21.106C161.302 21.4657 161.584 21.889 161.789 22.376C161.999 22.8574 162.104 23.3721 162.104 23.9199V29H159.838V23.9199C159.838 23.6875 159.794 23.4689 159.705 23.2642C159.617 23.0539 159.495 22.8713 159.34 22.7163C159.185 22.5614 159.005 22.4396 158.8 22.3511C158.596 22.2625 158.377 22.2183 158.145 22.2183C157.907 22.2183 157.682 22.2625 157.472 22.3511C157.262 22.4396 157.079 22.5614 156.924 22.7163C156.769 22.8713 156.648 23.0539 156.559 23.2642C156.471 23.4689 156.426 23.6875 156.426 23.9199V29ZM167.259 26.8252C167.347 26.8529 167.436 26.8722 167.524 26.8833C167.613 26.8888 167.701 26.8916 167.79 26.8916C168.011 26.8916 168.224 26.8612 168.429 26.8003C168.634 26.7394 168.825 26.6536 169.002 26.543C169.185 26.4268 169.345 26.2884 169.483 26.1279C169.627 25.9619 169.743 25.7793 169.832 25.5801L171.492 27.2485C171.282 27.5474 171.038 27.8158 170.762 28.0537C170.491 28.2917 170.194 28.4937 169.874 28.6597C169.558 28.8257 169.223 28.9502 168.869 29.0332C168.521 29.1217 168.161 29.166 167.79 29.166C167.165 29.166 166.575 29.0498 166.022 28.8174C165.474 28.585 164.993 28.2612 164.578 27.8462C164.168 27.4312 163.844 26.9386 163.606 26.3687C163.368 25.7931 163.25 25.1623 163.25 24.4761C163.25 23.7733 163.368 23.1313 163.606 22.5503C163.844 21.9692 164.168 21.474 164.578 21.0645C164.993 20.6549 165.474 20.3368 166.022 20.1099C166.575 19.883 167.165 19.7695 167.79 19.7695C168.161 19.7695 168.523 19.8138 168.877 19.9023C169.232 19.9909 169.566 20.1182 169.882 20.2842C170.203 20.4502 170.502 20.6549 170.778 20.8984C171.055 21.1364 171.299 21.4048 171.509 21.7036L167.259 26.8252ZM168.421 22.1519C168.316 22.1131 168.211 22.0882 168.105 22.0771C168.006 22.0661 167.901 22.0605 167.79 22.0605C167.48 22.0605 167.187 22.1187 166.91 22.2349C166.639 22.3455 166.401 22.506 166.196 22.7163C165.997 22.9266 165.839 23.1812 165.723 23.48C165.607 23.7733 165.549 24.1053 165.549 24.4761C165.549 24.5591 165.552 24.6532 165.557 24.7583C165.568 24.8634 165.582 24.9714 165.599 25.082C165.621 25.1872 165.646 25.2896 165.673 25.3892C165.701 25.4888 165.737 25.5773 165.781 25.6548L168.421 22.1519ZM174.92 29H172.654V20.1099H173.202L173.949 21.1641C174.314 20.832 174.729 20.5775 175.194 20.4004C175.659 20.2178 176.141 20.1265 176.639 20.1265H178.639V22.3843H176.639C176.401 22.3843 176.177 22.4285 175.966 22.5171C175.756 22.6056 175.573 22.7274 175.418 22.8823C175.264 23.0373 175.142 23.2199 175.053 23.4302C174.965 23.6405 174.92 23.8646 174.92 24.1025V29Z" fill="#333333"/>
</svg>
