<svg width="75" height="75" viewBox="0 0 75 75" fill="none" xmlns="http://www.w3.org/2000/svg">
<g clip-path="url(#clip0)">
<path d="M37.5 75C58.2107 75 75 58.2107 75 37.5C75 16.7893 58.2107 0 37.5 0C16.7893 0 0 16.7893 0 37.5C0 58.2107 16.7893 75 37.5 75Z" fill="#2A4997"/>
<path d="M50.1011 29.3817C47.1071 29.3817 44.8124 29.9296 43.2134 31.022L35.9816 23.8865C34.8563 22.6909 33.5227 21.8895 31.9789 21.485C29.7563 20.8891 24.4482 20.9999 13.7377 20.9999V53.3357L35.3384 74.9365C36.054 74.9772 36.7742 75 37.4999 75C54.8529 75 69.4507 63.2121 73.7284 47.2078L58.4339 31.9132L58.4331 31.914C56.4968 29.9583 53.6035 29.3817 50.1011 29.3817Z" fill="#263364"/>
<path d="M13.7377 53.3358V21C24.4483 21 29.7563 20.8895 31.9789 21.4852C33.8317 21.9705 35.3829 23.0257 36.6329 24.6504C39.0544 27.7989 38.947 33.0998 37.427 35.9547C36.0519 38.5364 33.7319 40.144 31.2951 40.675C28.4262 41.2433 24.1786 41.1382 20.2665 41.1382V53.3358H13.7377ZM20.2666 26.4703V35.6461C26.8824 35.6461 29.462 35.8603 31.0414 33.5506C32.09 32.0171 32.0677 29.59 30.7438 28.1246C29.0889 26.2948 27.2809 26.4703 20.2666 26.4703Z" fill="#76C8DA"/>
<path d="M39.3814 46.6525L45.6016 45.7039C46.1805 48.3416 47.9594 49.3875 50.6084 49.3875C52.6296 49.3875 55.0419 48.8805 55.0419 46.8508C55.0419 45.4865 53.9008 45.1859 52.5274 44.8658C47.5277 43.7629 44.3587 42.7559 43.0208 41.844C41.1679 40.5795 40.2417 38.8222 40.2417 36.5723C40.2417 34.5431 41.043 32.8374 42.6458 31.455C44.2484 30.0729 46.7336 29.3817 50.1011 29.3817C55.2192 29.3817 59.0376 30.6108 60.468 35.5797L54.6228 36.6606C54.3726 35.7492 53.8985 35.0505 53.2002 34.5652C51.6033 33.456 47.939 33.7241 46.7043 34.5211C45.8234 35.1267 45.7233 36.2338 46.6161 36.9032C48.4107 38.2263 56.0795 38.7083 59.321 41.4029C60.6149 42.5058 61.2621 44.0426 61.2621 46.0128C61.2621 48.16 60.365 50.0051 58.5712 51.5492C56.7769 53.0931 54.1227 53.8652 50.6086 53.8652C47.4174 53.8652 44.892 53.2184 43.0319 51.9242C41.1715 50.6303 39.9549 48.873 39.3814 46.6525Z" fill="#76C8DA"/>
</g>
<defs>
<clipPath id="clip0">
<rect width="75" height="75" fill="white"/>
</clipPath>
</defs>
</svg>
