<svg width="107" height="107" viewBox="0 0 107 107" fill="none" xmlns="http://www.w3.org/2000/svg">
<path d="M53.5021 0C24.0004 0 0.00100708 23.9983 0.00100708 53.4978C0.00100708 82.9995 24.0015 107 53.501 107C82.9994 107 106.998 82.9995 106.998 53.4978C106.999 23.9994 83.0005 0 53.5021 0ZM5.39993 53.4978C5.39993 46.5257 6.8953 39.9038 9.56474 33.9234L32.5102 96.7892C16.4657 88.991 5.39993 72.5374 5.39993 53.4978ZM53.5021 101.602C48.7803 101.602 44.223 100.91 39.9137 99.6421L54.3449 57.706L69.133 98.2123C69.2286 98.4513 69.3453 98.6693 69.4754 98.8749C64.4756 100.634 59.1034 101.602 53.5021 101.602ZM60.1296 30.9459C63.0247 30.7936 65.6363 30.4879 65.6363 30.4879C68.2268 30.181 67.9233 26.3731 65.3284 26.5254C65.3284 26.5254 57.538 27.1358 52.5071 27.1358C47.7819 27.1358 39.8369 26.5254 39.8369 26.5254C37.2442 26.3731 36.9418 30.3356 39.5334 30.4879C39.5334 30.4879 41.9883 30.7936 44.5777 30.9459L52.0712 51.4799L41.5447 83.0495L24.0315 30.9471C26.9311 30.7959 29.5372 30.489 29.5372 30.489C32.1277 30.1833 31.8219 26.3731 29.2281 26.5288C29.2281 26.5288 21.441 27.1391 16.409 27.1391C15.5051 27.1391 14.4411 27.1158 13.3137 27.0813C21.9124 14.021 36.6983 5.39892 53.5021 5.39892C66.0266 5.39892 77.427 10.1863 85.9835 18.0257C85.7756 18.0146 85.5743 17.9868 85.3586 17.9868C80.6357 17.9868 77.2825 22.1027 77.2825 26.5243C77.2825 30.4868 79.5672 33.8422 82.0054 37.8047C83.8366 41.0089 85.9712 45.1259 85.9712 51.0707C85.9712 55.1888 84.3902 59.9651 82.3101 66.6204L77.5126 82.6537L60.1296 30.9459ZM77.6827 95.077L92.3752 52.5972C95.1225 45.7363 96.0331 40.2495 96.0331 35.3676C96.0331 33.5987 95.9174 31.9544 95.7084 30.4212C99.4663 37.2732 101.604 45.137 101.602 53.5C101.601 71.2444 91.9817 86.7385 77.6827 95.077Z" fill="black"/>
</svg>
